<?xml version='1.0' encoding='ASCII' standalone='yes'?>
<svg xmlns="http://www.w3.org/2000/svg" viewBox="0 0 4000 4000">
    <defs>
        <style>.cls-1{fill:#ffbff5}.cls-2,.cls-5{fill:#a10189}.cls-10,.cls-2,.cls-3,.cls-5,.cls-6,.cls-9{stroke:#333;stroke-width:5px}.cls-10,.cls-2,.cls-3,.cls-6,.cls-9{stroke-miterlimit:10}.cls-3{fill:#f7c394}.cls-4{fill:#ffc9a1}.cls-5{stroke-linecap:round;stroke-linejoin:round}.cls-6{fill:#ffcd98}.cls-7{fill:#3d0c0c}.cls-10,.cls-8{fill:#fff}.cls-9{fill:#fd2a20}.cls-11{fill:#775a42}.cls-12{opacity:0.08}.cls-13{opacity:0.1}.cls-14{opacity:0.05}.cls-15{opacity:0.2}'</style>
    </defs>
    <title>outline+shader</title>
    <g id="outline_shader" data-name="outline+shader">
        <g id="monKeyBody">
            <rect id="frame" class="cls-1" width="4000" height="4000"/>
            <g id="body">
                <path class="cls-2" d="M2304.67,3292.92a204.73,204.73,0,0,1-29.56-2.28c-50.77-7.42-115.16-32.27-196.86-76a25,25,0,0,1,23.59-44.09c75.45,40.37,136.18,64.12,180.5,70.6,28.93,4.23,49.75,1,61.88-9.64,13.61-11.92,12.39-33,8.83-72.39-4.17-46.12-9.36-103.53,19.78-169.51,22.06-50,60.82-97.58,106.32-130.66,24.68-17.94,50.48-31.1,76.69-39.12,29.15-8.92,58.11-11.24,86.08-6.92,34.55,5.35,69.21,20.88,97.6,43.73,32.6,26.24,54.08,59.73,62.13,96.86,6.59,30.41,4.83,66.52-4.71,96.6-12.26,38.65-36.7,66.29-68.82,77.83a102.94,102.94,0,0,1-35,6c-49.4,0-90.4-33.45-95.84-38.08a25,25,0,1,1,32.42-38.06c.43.36,43.66,36.65,81.49,23.06,21.92-7.87,32.8-29.3,38.06-45.89,6.91-21.79,8.25-49,3.5-70.89-7.07-32.63-28.16-55.26-44.61-68.5-21.34-17.18-48.27-29.3-73.9-33.27-28.11-4.34-72.73-1.44-125.72,37.07-38.58,28.05-71.38,68.29-90,110.42-23.91,54.16-19.56,102.32-15.72,144.81,4,43.84,7.71,85.25-25.67,114.5C2359.1,3285,2334.79,3292.92,2304.67,3292.92Z"/>
                <path class="cls-2" d="M1580.05,3154.46a62.49,62.49,0,0,1-62.49-62.27c-.35-95.35,34-193.09,99.3-282.65,56-76.83,132.08-142.11,208.64-179.11A62.5,62.5,0,1,1,1879.89,2743c-58.66,28.35-117.72,79.46-162,140.22-34.53,47.35-75.62,122-75.3,208.54a62.5,62.5,0,0,1-62.27,62.73Z"/>
                <path class="cls-3" d="M1601,3260.17a72.37,72.37,0,0,1-25.27-4.57c-21.18-7.88-38.24-24.19-50.7-48.49a150.3,150.3,0,0,1-15.12-48.05,115.4,115.4,0,0,1,2.11-43.78c5.57-22,17.94-40.42,35.76-53.19a72.5,72.5,0,0,1,111,81.79A72.53,72.53,0,0,1,1601,3260.17Z"/>
                <path class="cls-2" d="M1864.5,3526.24c-1.28,0-2.56,0-3.86-.08a95,95,0,0,1-91.13-98.71c4.64-116.19,33.54-197,54.63-256,6.3-17.61,11.74-32.82,15.66-46.38a95,95,0,1,1,182.53,52.74c-5.55,19.23-12.22,37.88-19.28,57.62-18.85,52.7-40.21,112.44-43.69,199.59A95,95,0,0,1,1864.5,3526.24Z"/>
                <path class="cls-3" d="M1910,3556.61a67.37,67.37,0,0,1-21.26-3.45c-27.72-9.2-93.83-15.48-147.71.23a67.5,67.5,0,1,1-37.78-129.61c46.2-13.47,92.28-15.49,122.79-14.82,39.22.86,76.58,6.57,105.2,16.06A67.51,67.51,0,0,1,1910,3556.61Z"/>
                <path class="cls-2" d="M2135.37,3528.07a95,95,0,0,1-94.76-89.56c-5-87.08-27.4-146.43-47.17-198.81-7.4-19.61-14.39-38.14-20.28-57.27a95,95,0,0,1,181.59-55.91c4.15,13.49,9.85,28.6,16.46,46.1,22.12,58.62,52.42,138.91,59.09,255a95,95,0,0,1-89.4,100.29C2139.05,3528,2137.2,3528.07,2135.37,3528.07Z"/>
                <path class="cls-3" d="M2090,3556.61A67.51,67.51,0,0,1,2068.75,3425c28.62-9.49,66-15.2,105.2-16.06,30.51-.67,76.59,1.35,122.79,14.82A67.5,67.5,0,1,1,2259,3553.39c-53.88-15.71-120-9.43-147.71-.23A67.41,67.41,0,0,1,2090,3556.61Z"/>
                <path class="cls-2" d="M2411.42,3137.38a62.52,62.52,0,0,1-62.26-68.8c5.42-53.52-18.62-122.19-65.95-188.39-44.74-62.6-107-117.39-162.44-143a62.5,62.5,0,1,1,52.42-113.47c37.53,17.33,76.84,43.49,113.66,75.63a638.57,638.57,0,0,1,98.05,108.15c65.71,91.92,97.19,189.11,88.63,273.68A62.51,62.51,0,0,1,2411.42,3137.38Z"/>
                <path class="cls-3" d="M2396.8,3259.89a72.53,72.53,0,0,1-58.59-115.27,72.5,72.5,0,0,1,109.6-83.72c18,12.46,30.73,30.63,36.68,52.55a115.44,115.44,0,0,1,2.88,43.75c-4.06,35.05-23.3,81.66-64.13,97.67A72.45,72.45,0,0,1,2396.8,3259.89Z"/>
                <path class="cls-2" d="M2025.55,2468.72c55.31,3.41,93.41,43.63,127.17,80.31,39.32,42.72,80.12,104.46,119,245.31,39.4,142.77,45.88,220.06,45.88,292,0,153.62-140.68,305.09-320,306.63-175.53,1.51-319-153-319-306.63,0-72.8,12.64-145.29,62.27-292.31,48.16-142.67,92.57-200.23,125.82-235.11C1904.21,2519.59,1956.72,2464.49,2025.55,2468.72Z"/>
                <path class="cls-3" d="M1997.29,2512.77c41-.36,82.22,51.85,113.58,106.22,48.06,83.32,65.36,157.62,70.56,181.37,32.46,148.28,54.24,271.27-6,346.6-59.91,74.89-132.36,85.58-175.41,85.58-47.55,0-118.32-8.27-177.41-81.89-58.83-73.29-34.76-194.73,3.51-350.46,3.93-16,38.3-103.8,95.44-210.33C1939.77,2555.87,1964.38,2513.06,1997.29,2512.77Z"/>
                <path class="cls-3" d="M863.8,1836.78c-109.3,103.92-60.91,310.4,16.55,426.94,110.37,166.07,358.19,267.53,482.59,176,129.94-95.63,107.64-388.85-48.6-538.55C1197.69,1789.37,976.84,1729.31,863.8,1836.78Z"/>
                <path class="cls-4" d="M995.57,1954.6c-64.75,69.33-26.65,197.17,26.33,267.46,75.51,100.15,234.9,154.61,309.6,92.47,78-64.9,53.06-248.18-50.63-336.34C1203.46,1912.36,1062.54,1882.9,995.57,1954.6Z"/>
                <path class="cls-3" d="M3133.19,1832.12c111.1,102,66.32,309.29-9.09,427.16-107.46,168-353.47,273.75-479.46,184.37-131.58-93.35-114.4-386.92,39.2-539.32C2798.52,1790.55,3018.29,1726.64,3133.19,1832.12Z"/>
                <path class="cls-4" d="M3003.49,1952.22c66,68.19,30.1,196.68-21.65,267.88-73.75,101.45-232.17,158.69-307.94,97.86-79.14-63.53-57.39-247.22,44.75-337.18C2794.91,1913.62,2935.29,1881.7,3003.49,1952.22Z"/>
                <path class="cls-5" d="M2500.32,839C2542.64,803.15,2376,763,2353.8,699.51,2327,623,2749.39,826.61,2685.37,960.59c-5,10.51-55.43,94-417.61-23.77C2665.92,1066,2965.92,1340,2964.5,1847.06c-1.09,388.75-348.57,990.75-964.93,996.12-594.62,5.19-966-596.16-964.93-996.12,1.32-488.44,432.22-991,966.09-1028.56C2320.14,796.05,2465.29,868.6,2500.32,839Z"/>
                <path class="cls-6" d="M1999.57,1320.55c19.15-.16,112.39-116.75,268-116.74,223.53,0,482,324.76,482.28,643.25.16,205.85-111.65,252-111.45,275.69.19,21.13,236.88,22.58,236.88,254.71,0,209.25-420.37,512-840.86,524.16-461.31,13.34-910.31-319.74-910.31-497.74,0-232.44,237-260.58,236.85-281.27s-111.76-76.15-111.93-275.55c-.26-318.49,259.27-643.25,482.47-643.25C1903.93,1203.8,1976.84,1320.75,1999.57,1320.55Z"/>
                <path class="cls-7" d="M2598.46,2330.77c32.4-4.6,56,22.77,47.08,55.45-11.75,43.09-35,85.68-67.74,125.82q-11.18,13.73-23.87,27c-115.49,121.69-320.37,213.48-554.36,213.08-234,.4-438.88-91.39-554.37-213.08q-12.67-13.29-23.87-27c-32.77-40.14-56-82.73-67.74-125.83-8.9-32.67,14.68-60,47.08-55.44A4258.57,4258.57,0,0,0,2598.46,2330.77Z"/>
                <path class="cls-7" d="M2001,2770.57h-3c-112.73,0-225.78-21.46-327-62.09-95.65-38.4-178.38-92.6-239.24-156.73-8.78-9.21-17.13-18.66-24.79-28.07-34.94-42.79-58.91-87.41-71.24-132.62-6-21.92-1.43-43.51,12.46-59.24,13.5-15.31,33.55-22.34,55-19.29a4240.21,4240.21,0,0,0,596.31,42.15,4238.47,4238.47,0,0,0,596.3-42.15h0c21.45-3.05,41.49,4,55,19.29,13.88,15.73,18.42,37.32,12.45,59.24-12.32,45.19-36.29,89.82-71.25,132.63-7.71,9.47-16.06,18.92-24.81,28.09-60.83,64.1-143.56,118.3-239.21,156.7C2226.87,2749.11,2113.83,2770.57,2001,2770.57Zm-1.5-36.85c108.65.21,217.49-20.37,314.78-59.43,90.77-36.45,169-87.6,226.25-147.91,8.11-8.51,15.82-17.24,22.95-26,31.68-38.81,53.29-78.85,64.25-119,2.65-9.73,1-18.9-4.53-25.17-5.23-5.92-13.1-8.47-22.18-7.18h0a4275.86,4275.86,0,0,1-1203,0c-9.08-1.29-17,1.26-22.18,7.18-5.53,6.27-7.18,15.44-4.53,25.17,11,40.19,32.57,80.24,64.24,119,7.07,8.68,14.78,17.41,22.93,26,57.27,60.34,135.5,111.49,226.27,147.93,96.85,38.89,205.16,59.44,313.29,59.44Z"/>
                <path class="cls-8" d="M2645.54,2386.21c-11.75,43.09-35,85.69-67.74,125.83q-36.18,5-72.45,9.29-6.66.81-13.33,1.58a4258.42,4258.42,0,0,1-968,1.93q-8.94-1-17.87-2.06h0q-42.43-4.94-84.78-10.74c-32.77-40.14-56-82.73-67.74-125.83-8.9-32.67,14.68-60,47.08-55.44q7.83,1.11,15.65,2.19,7.37,1,14.74,2a4258.54,4258.54,0,0,0,1153.33-2.23l10.13-1.41,3.94-.56C2630.85,2326.17,2654.44,2353.54,2645.54,2386.21Z"/>
                <path class="cls-8" d="M2553.93,2539.06c-48.1,50.68-111.69,96.17-186.44,132a795,795,0,0,1-90.22,36.51c-84.24,28.31-178.35,44.76-277.7,44.59a874.36,874.36,0,0,1-243.1-33.8s0,0,0,0a814.34,814.34,0,0,1-94.37-33.52c-88-37.57-162.38-88.32-216.88-145.75q40.58,5.33,81.21,9.87c5.18.57,10.36,1.15,15.55,1.7a4257.87,4257.87,0,0,0,932.16-1.87q5.52-.62,11-1.25Q2519.57,2543.58,2553.93,2539.06Z"/>
                <path class="cls-8" d="M1758.29,1403.06c154.89,18,266.48,208.75,250,376.77-16.38,167.34-162.69,342-329.88,323-151.8-17.3-250.26-186.22-253.5-328.16C1420.6,1584.51,1585.75,1383,1758.29,1403.06Z"/>
                <ellipse class="cls-9" cx="1768.83" cy="1790.92" rx="210.18" ry="180.94" transform="translate(-326.31 3186.1) rotate(-79.02)"/>
                <ellipse cx="1779.83" cy="1823.1" rx="105.94" ry="118.46"/>
                <ellipse class="cls-10" cx="1833.61" cy="1726.3" rx="40.43" ry="42.42" transform="translate(-405.62 2878.73) rotate(-70.51)"/>
                <path class="cls-8" d="M2234,1398.91c-154.54,20.68-262.79,213.36-243.4,381.08,19.3,167,168.63,339.1,335.47,317.13,151.47-19.94,247-190.55,247.73-332.52C2574.78,1574.44,2406.14,1375.87,2234,1398.91Z"/>
                <ellipse class="cls-9" cx="2230.21" cy="1786.89" rx="180.94" ry="210.18" transform="translate(-322.43 502.04) rotate(-11.98)"/>
                <ellipse cx="2219.77" cy="1819.26" rx="105.94" ry="118.46" transform="translate(-31.41 39.02) rotate(-1)"/>
                <ellipse class="cls-10" cx="2274.24" cy="1726.33" rx="42.42" ry="40.43" transform="translate(-460.46 905.49) rotate(-20.49)"/>
                <path class="cls-11" d="M1784.05,2081.38c0,75.28,98.57,166.65,215.68,165.63,107.93-.94,213.18-91.24,213.18-165.41,0-59.68-124.17-112.16-213.18-111.39C1917.1,1970.93,1784.05,2010.78,1784.05,2081.38Z"/>
            </g>
            <g id="shader-2" data-name="shader">
                <g class="cls-12">
                    <path d="M1134.51,2454.76c-97.43-32.35-195.32-102.51-254.16-191-77.46-116.54-125.85-323-16.55-426.94,45.17-42.94,107.55-59.13,173.62-56-.29,3.54-.55,7.07-.79,10.61-50.59,4.15-97.1,21.38-132.83,55.35-109.3,103.92-60.91,310.4,16.55,426.94,50.31,75.69,129.16,138,211.87,174.64C1132.93,2450.48,1133.7,2452.61,1134.51,2454.76Z"/>
                </g>
                <g class="cls-12">
                    <path d="M3124.1,2259.28c-60.69,94.85-165.55,169.87-268,201.12.78-1.77,1.53-3.53,2.26-5.3,88.21-36.93,173.43-104,225.78-185.82,75.41-117.87,120.19-325.17,9.09-427.16-35.38-32.48-80.71-48.9-129.86-52.74q-.23-5.24-.5-10.44c64.45-3.41,125.42,11.93,170.36,53.18C3244.29,1934.11,3199.51,2141.41,3124.1,2259.28Z"/>
                </g>
                <g class="cls-13">
                    <path d="M2212.91,2101.6c0,74.17-105.25,164.47-213.18,165.41-117.11,1-215.68-90.35-215.68-165.63a54.18,54.18,0,0,1,.71-8.78c9,72.83,103.62,155.38,215,154.41,102.38-.89,202.34-82.18,212.35-153.85A43.67,43.67,0,0,1,2212.91,2101.6Z"/>
                </g>
                <path class="cls-14" d="M1510.91,2523.35l-4.79-.56h0q-42.43-5-84.78-10.75c-32.77-40.14-56-82.73-67.74-125.82-8.9-32.68,14.68-60,47.08-55.45,5.22.74,10.43,1.48,15.65,2.19l2.47.34C1438.39,2399.2,1468.2,2463.64,1510.91,2523.35Z"/>
                <path class="cls-14" d="M1735.54,2712q-38.07-12-73.46-27.2c-88-37.57-162.38-88.32-216.88-145.75q40.58,5.33,81.21,9.87l2.48.27C1581.32,2611,1649.11,2666.63,1735.54,2712Z"/>
                <path class="cls-14" d="M2645.54,2386.22c-11.75,43.08-35,85.68-67.74,125.82q-36.18,5-72.45,9.29-6.66.81-13.33,1.58l-3.14.36c42.55-59.77,72.34-124.18,92-190.06l3.48-.47,10.12-1.41,3.94-.56C2630.85,2326.17,2654.44,2353.54,2645.54,2386.22Z"/>
                <path class="cls-14" d="M2553.93,2539.06c-48.1,50.68-111.69,96.17-186.44,132a795,795,0,0,1-90.22,36.52q-5.62,1.89-11.32,3.71c85.48-45.39,152.78-100.72,205.06-162.16l3.11-.34,11-1.26Q2519.57,2543.58,2553.93,2539.06Z"/>
                <g class="cls-13">
                    <path d="M2333.57,957.05l1.81.51q-5.76-1.83-11.62-3.74Q2328.68,955.41,2333.57,957.05Z"/>
                    <path d="M2565.16,861.34c-53.4,62.41-211.81-40-531.22-17.54-533.87,37.53-942,531.82-943.3,1020.27-.3,106.94,28.59,233.52,78.72,353.81,58.8-73.84,151.53-99.67,178.59-114.16,7.94,8.57,13,14.51,13,18.89,0,.12,0,.24,0,.36a2,2,0,0,1,0,.26,3.42,3.42,0,0,1-.44,1.09l-.17.28a9,9,0,0,1-1.66,1.78l-.32.26a37.91,37.91,0,0,1-6.52,4l-1.61.79c-3.74,1.83-8.36,3.82-13.67,6l-1.23.51c-5.39,2.24-11.47,4.71-18.08,7.49l-3.09,1.3c-4.16,1.77-8.51,3.65-13,5.67l-3.4,1.54-1.72.79c-1.73.79-3.48,1.61-5.24,2.44-2.35,1.12-4.74,2.27-7.15,3.46l-1.81.9-1.82.91c-1.21.6-2.44,1.23-3.67,1.87q-4.61,2.37-9.3,4.94c-.63.34-1.25.68-1.88,1q-3.77,2.08-7.56,4.31-1.9,1.1-3.81,2.25l-.11.06q-4.71,2.85-9.44,5.89l-1.91,1.24c-1.91,1.26-3.83,2.54-5.74,3.84-.64.43-1.27.87-1.91,1.32q-4.77,3.33-9.51,6.88-3.8,2.87-7.54,5.87-2.8,2.27-5.6,4.62c-.62.51-1.24,1-1.85,1.58l-1.84,1.6q-1.85,1.59-3.66,3.27l-1.82,1.67-1.81,1.69c-1.15,1.08-2.29,2.18-3.42,3.28l-1.95,1.93c-1.19,1.18-2.36,2.37-3.52,3.59l-1.74,1.83q-3.48,3.67-6.85,7.55-1.68,1.93-3.33,3.92l-1.65,2q-1.95,2.37-3.82,4.8-1.74,2.23-3.41,4.53l-.3.39-.54.75-.41.57c-.31.44-.62.89-.94,1.33-.57.8-1.14,1.59-1.7,2.39-.87,1.25-1.73,2.51-2.56,3.79-.13.18-.25.35-.36.53l-.57.85-.32.5-1,1.61-1,1.59c-.35.54-.69,1.09-1,1.64-1,1.69-2.07,3.4-3.08,5.13-.15.25-.29.5-.43.75q-1.49,2.58-2.92,5.22a.2.2,0,0,0,0,.08q-.74,1.35-1.44,2.7c-.46.86-.9,1.73-1.35,2.6l-.08.15c-76.27-147.6-117-302.56-116.59-435.33,1.32-488.45,432.22-991,966.09-1028.57,319.41-22.45,464.56,50.1,499.59,20.46C2542.64,803.15,2376,763,2353.81,699.51c-8.57-24.46,28.82-20.27,81.55,1.13-20-2.88-31,1.83-25.55,15.87C2429.19,766.9,2604.32,815.59,2565.16,861.34Z"/>
                </g>
                <path class="cls-14" d="M1390.82,2108.61c0,3.67-23.81,15.25-36.41,20.62,4.23-2.41,6.58-4.54,6.58-6.6v0c-.18-20.61-111.76-76.15-111.93-275.54v-.48c0-1.83,0-3.66,0-5.48v-.52q0-3,.1-5.95C1259.43,2012.06,1390.65,2089,1390.82,2108.61Z"/>
                <path class="cls-12" d="M1637.84,3250.1a72.31,72.31,0,0,1-62.11,5.5c-21.18-7.88-38.24-24.19-50.7-48.49a150.3,150.3,0,0,1-15.12-48.05,115.4,115.4,0,0,1,2.11-43.78,98.25,98.25,0,0,1,5.88-16.76,63,63,0,0,1-.34-6.33c-.33-90.45,30.55-183,89.47-268.77l.85.32q15.11,5.84,30.49,11.32c-49.47,78.73-85.32,140.89-85,223.4-17,21.83-12.63,82.94.49,114.5C1581,3238.14,1630.47,3249.78,1637.84,3250.1Z"/>
                <path class="cls-14" d="M2644.33,2128.38c-12.95-5.65-34.48-16.28-34.45-19.77.16-18.89,121.63-90.8,139.95-254.23-2.45,199.63-111.6,244.95-111.4,268.37C2638.45,2124.73,2640.55,2126.54,2644.33,2128.38Z"/>
                <g class="cls-13">
                    <path d="M1974.07,3510.34a67.43,67.43,0,0,1-85.32,42.82c-27.72-9.2-93.83-15.48-147.71.23a67.52,67.52,0,0,1-85.66-74.81,69.07,69.07,0,0,0,2,8.89,67.52,67.52,0,0,0,83.7,45.92c53.88-15.71,120-9.43,147.71-.23a67.51,67.51,0,0,0,88-54.08A67.09,67.09,0,0,1,1974.07,3510.34Z"/>
                </g>
                <g class="cls-13">
                    <path d="M2342.66,3507.47a67.45,67.45,0,0,1-83.7,45.92c-53.88-15.71-120-9.43-147.71-.23a67.51,67.51,0,0,1-88-74.08,67.45,67.45,0,0,0,88,54.08c27.72-9.2,93.83-15.48,147.71.23a67.45,67.45,0,0,0,83.7-45.92,69.07,69.07,0,0,0,2-8.89A67,67,0,0,1,2342.66,3507.47Z"/>
                </g>
                <path class="cls-12" d="M2487.37,3157.2c-4.06,35.05-23.3,81.66-64.13,97.67A72.32,72.32,0,0,1,2362,3251c10.47-1.34,56.85-14.72,82.77-77,13.12-31.56,17.35-93,.34-114.84.29-78.53-32-149-77.79-223.56q14.76-5.32,29.3-11c57.7,86.8,84.94,177.3,76.9,256.66-.19,1.87-.47,3.7-.81,5.51a96.49,96.49,0,0,1,11.77,26.77A115.44,115.44,0,0,1,2487.37,3157.2Z"/>
                <g class="cls-12">
                    <path d="M1959.44,3433.13c0,.63,0,1.27-.08,1.9q-.15,3.73-.58,7.39a67.23,67.23,0,0,0-27.53-17.4c-28.62-9.49-66-15.2-105.2-16.06a459.31,459.31,0,0,0-55.71,2.13c.2-3.39.43-6.74.68-10.07a462.82,462.82,0,0,1,55-2.06c39.22.86,76.58,6.57,105.2,16.06A67.16,67.16,0,0,1,1959.44,3433.13Z"/>
                    <path d="M2229.17,3411A462.3,462.3,0,0,0,2174,3409c-39.22.86-76.58,6.57-105.2,16.06a67.16,67.16,0,0,0-27.8,17.69c-.15-1.39-.26-2.79-.34-4.2-.1-1.71-.2-3.4-.32-5.09a67.14,67.14,0,0,1,28.46-18.4c28.62-9.49,66-15.2,105.2-16.06a462.57,462.57,0,0,1,54.36,2Q2228.76,3405.95,2229.17,3411Z"/>
                </g>
                <g class="cls-12">
                    <path d="M1783.72,3308.76c48.55,44.14,110.63,75,179.06,82.49q-.87,7.27-1.54,14.83c-69-7.92-131.44-39.58-180-84.59Q1782.44,3315,1783.72,3308.76Z"/>
                    <path d="M2216.32,3319.91c-47.76,44.29-109.47,75.84-178.59,85.21q-.87-7.51-1.91-14.74c68.6-8.88,130-39.6,177.8-83Q2215,3313.56,2216.32,3319.91Z"/>
                </g>
                <g class="cls-13">
                    <path d="M2317.59,3086.38c0,153.62-140.68,305.09-320,306.63-175.53,1.51-319-153-319-306.63,0-10,.24-20.06.79-30.27,11.56,146.84,150.22,288.35,318.23,286.9,172.85-1.48,309.81-142.31,319.43-290.07C2317.44,3064.35,2317.59,3075.43,2317.59,3086.38Z"/>
                </g>
                <g class="cls-12">
                    <path d="M2175.41,3147c-59.91,74.88-132.36,85.57-175.41,85.57-47.55,0-118.32-8.27-177.41-81.89-27.71-34.52-37-79.73-35.13-134.17,1.64,43,12,79.3,35.13,108.17,59.09,73.62,129.86,81.89,177.41,81.89,43,0,115.5-10.69,175.41-85.57,25.37-31.72,36.2-71.88,37.82-118.83C2215,3060.35,2205.35,3109.54,2175.41,3147Z"/>
                </g>
                <path class="cls-13" d="M2396.63,2824.52c-35,13.72-71,26-107.74,36.45q-8.25,2.36-16.56,4.59c-77.34,20.83-157.6,33.74-237.88,36.06-102.94,3-205.27-11.3-302.13-37.25q-6.52-1.76-13-3.57c-38.43-10.76-76-23.34-112.26-37.39q-10.86,15.81-20.44,31.9a1242.57,1242.57,0,0,0,121.21,42.21l1.17-1.73c-.18.64-.36,1.28-.53,1.92,103.84,30.14,214.56,47.13,326,43.91,88.47-2.56,176.94-18,261.49-42.69l1.36-.4a1195,1195,0,0,0,119.15-42Q2407.24,2840.48,2396.63,2824.52Z"/>
                <g class="cls-15">
                    <path d="M2352.6,3244.86c-21.27,18.38-65.08,13.14-91.57,9.31q5.26-7.34,10.07-14.94,5.79,1.14,11.24,1.94c26.64,3.89,46.4,1.46,58.83-7.25A71.17,71.17,0,0,0,2352.6,3244.86Z"/>
                    <path d="M2711.22,3080.89a48.07,48.07,0,0,0,6.4-2.83,51.65,51.65,0,0,1-21.4,14.83c-37.83,13.59-81.06-22.69-81.49-23.06a25,25,0,0,0-23.13-5,24.27,24.27,0,0,1,2.89-4.19,25,25,0,0,1,35.24-2.82C2630.16,3058.2,2673.39,3094.48,2711.22,3080.89Z"/>
                    <path d="M2796.94,3050.12c-9.47,29.84-26.19,53.12-48.11,67.49,14.6-14.05,25.94-32.88,33.11-55.49,9.54-30.08,11.3-66.18,4.71-96.59-8.05-37.13-29.53-70.63-62.13-96.87-28.39-22.85-63.05-38.38-97.6-43.73-28-4.32-56.93-2-86.08,6.92-26.21,8-52,21.19-76.69,39.12-1.26.92-2.52,1.84-3.77,2.78q9.16-7.78,18.77-14.78c24.68-17.93,50.48-31.09,76.69-39.12,29.15-8.92,58.11-11.24,86.08-6.92,34.55,5.35,69.21,20.88,97.6,43.73,32.6,26.24,54.08,59.74,62.13,96.87C2808.24,2983.94,2806.48,3020,2796.94,3050.12Z"/>
                </g>
                <path class="cls-15" d="M2212.91,2081.6c0,74.17-105.25,164.47-213.18,165.41-117.11,1-215.68-90.35-215.68-165.63a55.09,55.09,0,0,1,.79-9.31c42.18,52.17,123.35,95.66,214.39,94.95,85.09-.67,168.69-45.29,211.9-97.87A45.3,45.3,0,0,1,2212.91,2081.6Z"/>
                <path class="cls-14" d="M1834.52,1427a214.27,214.27,0,0,0-31.9-6.17c-175.15-20.17-342.8,182.73-338.41,374.18,2.47,107.25,59.36,229.79,152.7,291.65-116.4-48.78-189.2-190.33-192-312-4.33-190.11,160.82-391.59,333.36-371.55A217.6,217.6,0,0,1,1834.52,1427Z"/>
                <path class="cls-14" d="M2573.77,1764.6c-.66,123.27-72.75,268.13-190.88,317.21,95.29-61.62,152.08-188.08,152.66-297.55,1-190.6-168-389.61-340.57-366.52a211.81,211.81,0,0,0-45.38,11.34c26-15.6,54.29-26.14,84.37-30.17C2406.14,1375.87,2574.78,1574.44,2573.77,1764.6Z"/>
                <path class="cls-13" d="M1862.25,1605.54q-6.51-1.85-13.25-3.16c-99.1-19.24-197.56,58.49-219.9,173.6-16.75,86.35,14.07,169.22,72.35,213.35-81.88-32-130.23-129.93-110.25-232.89,22.12-114,119.58-190.89,217.68-171.85A158.12,158.12,0,0,1,1862.25,1605.54Z"/>
                <path class="cls-13" d="M2295.09,1986.4c60.86-43.65,92.6-129.07,73.87-217.3-24.16-113.85-123.21-189.28-221.22-168.48a157.39,157.39,0,0,0-17.52,4.78,158.17,158.17,0,0,1,56.34-24.11c97.76-20.75,196.54,54.48,220.65,168C2429.51,1854.39,2380.05,1955.46,2295.09,1986.4Z"/>
                <path class="cls-13" d="M2749.41,1798.06q0,9.7-.31,18.94c-15.7-308.54-265-613.19-481.5-613.19-155.64,0-248.88,116.58-268,116.74-22.73.2-95.64-116.74-268-116.74-215.85,0-465.69,303.73-481.65,611.81l-.18,3.62c0,1.22-.11,2.43-.16,3.65s-.1,2.42-.14,3.63q-.78-13.71-.81-28.46c-.26-318.49,259.27-643.25,482.47-643.26,172.41,0,245.31,117,268,116.75,19.15-.17,112.39-116.75,268-116.75C2490.66,1154.81,2749.17,1479.57,2749.41,1798.06Z"/>
                <path class="cls-12" d="M2875.31,2377.46c0,209.26-420.37,512-840.86,524.16-461.31,13.34-910.31-319.74-910.31-497.74q0-7.14.3-14c38.59,182.8,468.4,486,909.44,473.26,406.19-11.75,812.27-294.09,841-502.25Q2875.31,2369,2875.31,2377.46Z"/>
                <path class="cls-13" d="M2964.5,1847.07c-.36,127.74-38.12,278.51-110.54,423.57-58.2-126.52-215.38-130.67-215.53-147.89,0-3.44,2.3-7.34,6.3-12.14,29.88,12.38,135.89,21.8,193.55,102.09,59.3-132.15,86.52-259.16,86.84-374.86,1.43-510.11-312.88-784.54-713.42-914.5,35.09,11.39,34.68,6.38,56.06,13.48C2665.92,1066,2965.92,1340,2964.5,1847.07Z"/>
            </g>
        </g>
    </g>
<svg viewBox="0 0 4e3 4e3">
<defs>
<style>.cls-17{fill:#ffcd98;stroke:#333;stroke-miterlimit:10;stroke-width:5px}.cls-18{opacity:0.08}.cls-19{fill:#fff}.cls-20{opacity:0.05}.cls-21{fill:#7f6145}.cls-22{opacity:0.1}.cls-23{opacity:0.2}.cls-24{fill:#3d0c0c}.cls-25{fill:#b34a31}.cls-26{fill:#d6d6d6}.cls-27{fill:#181818}.cls-28{fill:#eaeaea}.cls-29{fill:#c1c1c1}.cls-30{fill:#933b2a}.cls-31{fill:#b5482c}'</style>
</defs>
<title>mouth4</title>
<path class="cls-17" d="m2638.4 2122.8c-0.2-23.7 111.61-69.84 111.45-275.69-0.25-318.49-258.75-643.25-482.28-643.25-155.64 0-248.88 116.58-268 116.74-22.73 0.2-95.64-116.75-268-116.74-223.2 0-482.73 324.76-482.47 643.25 0.17 199.4 111.75 254.94 111.93 275.55s-236.85 48.83-236.85 281.27c0 178 449 511.08 910.31 497.74 420.49-12.16 840.86-314.91 840.86-524.16-0.07-232.13-236.76-233.58-236.95-254.71zm-689.76-296.93c-10.8 55.65-39.63 104.35-81.16 137.14-32.82 25.91-70.48 39.45-108.51 39.45a161.3 161.3 0 0 1-30.65-3c-99.16-19.2-161.67-128.41-139.35-243.41s121.16-192.88 220.32-173.63c48.1 9.34 89.08 39.84 115.39 85.9s34.76 101.91 23.96 157.55zm439.53 81c-25.51 46.51-65.95 77.73-113.88 87.9a160.79 160.79 0 0 1-33.39 3.52c-37.09 0-73.93-12.87-106.38-37.58-42.11-32.06-71.77-80.25-83.54-135.7s-4.24-111.53 21.21-157.93 66-77.73 113.88-87.91c98.8-21 199 55.18 223.31 169.76 11.77 55.42 4.23 111.51-21.21 157.91z"/>
<path class="cls-18" d="m2875.3 2377.5c0 209.26-420.37 512-840.86 524.16-461.31 13.34-910.31-319.74-910.31-497.74q0-7.14 0.3-14c38.59 182.8 468.4 486 909.44 473.26 406.19-11.75 812.27-294.09 841-502.25q0.43 8.11 0.43 16.57z"/>
<path class="cls-19" d="m1758.3 1403.1c-172.54-20-337.69 181.45-333.36 371.56 3.24 141.94 101.7 310.86 253.5 328.16 167.19 19 313.5-155.61 329.88-323 16.46-167.97-95.13-358.73-250.02-376.72zm190.38 422.76c-10.8 55.65-39.63 104.35-81.16 137.14-32.82 25.91-70.48 39.45-108.51 39.45a161.3 161.3 0 0 1-30.65-3c-99.16-19.2-161.67-128.41-139.35-243.41s121.16-192.88 220.32-173.63c48.1 9.34 89.08 39.84 115.39 85.9s34.76 101.91 23.96 157.55z"/>
<path class="cls-20" d="m1834.5 1427a214.27 214.27 0 0 0-31.9-6.17c-175.15-20.17-342.8 182.73-338.41 374.18 2.47 107.25 59.36 229.79 152.7 291.65-116.4-48.78-189.2-190.33-192-312-4.33-190.11 160.82-391.59 333.36-371.55a217.6 217.6 0 0 1 76.25 23.89z"/>
<path class="cls-19" d="m2234 1398.9c-154.54 20.68-262.79 213.36-243.4 381.08 19.3 167 168.63 339.1 335.47 317.13 151.47-19.94 247-190.55 247.73-332.52 0.98-190.16-167.66-388.73-339.8-365.69zm154.23 507.88c-25.51 46.51-65.95 77.73-113.88 87.9a160.79 160.79 0 0 1-33.39 3.52c-37.09 0-73.93-12.87-106.38-37.58-42.11-32.06-71.77-80.25-83.54-135.7s-4.24-111.53 21.21-157.93 66-77.73 113.88-87.91c98.8-21 199 55.18 223.31 169.76 11.74 55.45 4.2 111.54-21.24 157.94z"/>
<path class="cls-20" d="m2573.8 1764.6c-0.66 123.27-72.75 268.13-190.88 317.21 95.29-61.62 152.08-188.08 152.66-297.55 1-190.6-168-389.61-340.57-366.52a211.81 211.81 0 0 0-45.38 11.34c26-15.6 54.29-26.14 84.37-30.17 172.17-23.04 340.81 175.53 339.8 365.69z"/>
<path class="cls-21" d="m1784 2081.4c0 75.28 98.57 166.65 215.68 165.63 107.93-0.94 213.18-91.24 213.18-165.41 0-59.68-124.17-112.16-213.18-111.39-82.63 0.72-215.68 40.57-215.68 111.17z"/>
<path class="cls-22" d="m2212.9 2101.6c0 74.17-105.25 164.47-213.18 165.41-117.11 1-215.68-90.35-215.68-165.63a54.18 54.18 0 0 1 0.71-8.78c9 72.83 103.62 155.38 215 154.41 102.38-0.89 202.34-82.18 212.35-153.85a43.67 43.67 0 0 1 0.8 8.44z"/>
<path class="cls-23" d="m2212.9 2081.6c0 74.17-105.25 164.47-213.18 165.41-117.11 1-215.68-90.35-215.68-165.63a55.09 55.09 0 0 1 0.79-9.31c42.18 52.17 123.35 95.66 214.39 94.95 85.09-0.67 168.69-45.29 211.9-97.87a45.3 45.3 0 0 1 1.78 12.45z"/>
<path class="cls-24" d="m2604.8 2327.5c32.86-4.67 56.78 23.09 47.76 56.23-11.92 43.71-35.48 86.91-68.72 127.63q-11.32 13.9-24.2 27.4c-117.14 123.43-325 216.52-562.28 216.12-237.33 0.4-445.14-92.69-562.28-216.12q-12.84-13.48-24.2-27.4c-33.25-40.72-56.79-83.92-68.71-127.63-9-33.14 14.89-60.9 47.75-56.23a4319.3 4319.3 0 0 0 1214.9 0z"/>
<path class="cls-24" d="m1998.9 2773.6h-3.05c-114.34 0-229-21.76-331.62-63-97-39-180.93-93.93-242.66-159-8.9-9.34-17.37-18.93-25.14-28.47-35.44-43.4-59.75-88.66-72.25-134.51-6.06-22.23-1.46-44.13 12.62-60.09 13.71-15.53 34-22.65 55.79-19.56a4300.7 4300.7 0 0 0 604.81 42.75 4300.6 4300.6 0 0 0 604.81-42.7c21.75-3.09 42.09 4 55.79 19.56 14.08 16 18.68 37.86 12.63 60.08-12.5 45.85-36.82 91.11-72.27 134.53-7.83 9.61-16.3 19.2-25.16 28.49-61.7 65-145.61 120-242.63 158.94-102.58 41.22-217.28 62.98-331.67 62.98zm-1.53-37.38h1.47c109.73 0 219.56-20.83 317.8-60.28 92.07-37 171.42-88.84 229.48-150 8.23-8.62 16-17.47 23.28-26.34 32.13-39.36 54.05-80 65.17-120.73 2.68-9.87 1-19.17-4.6-25.53-5.3-6-13.29-8.6-22.5-7.29a4336 4336 0 0 1-1220.1 0c-9.2-1.31-17.2 1.28-22.5 7.29-5.61 6.36-7.28 15.66-4.59 25.53 11.12 40.77 33 81.38 65.15 120.72 7.18 8.81 15 17.66 23.26 26.33 58.09 61.2 137.44 113.08 229.51 150 98.23 39.45 208.08 60.28 317.75 60.28z"/>
<path class="cls-19" d="m2442.1 2633.4c-117.54 73.35-273.43 121.75-444.69 121.46-171.25 0.29-327.12-48.1-444.66-121.44a6224.6 6224.6 0 0 0 889.35-0.02z"/>
<path class="cls-18" d="m1928.8 2752.4c-144.13-10.75-274.43-55.51-376.06-118.93q44 3.15 88 5.68c81.46 53.77 179.83 94.24 288.06 113.25z"/>
<path class="cls-18" d="m2442.1 2633.4a756.16 756.16 0 0 1-119.55 60.26 706.76 706.76 0 0 0 88.11-58.09q15.71-1.04 31.44-2.17z"/>
<path class="cls-25" d="M3132.37,2587s-4,239.11-199.34,207.23c-52.85-8.62-117.39-24.25-184.07-43.3-1.77-.5-3.53-1-5.3-1.52-66.86-19.24-135.61-41.83-196.64-64.17-1.7-.61-3.37-1.23-5-1.85-48-17.68-91-35.14-124.27-50.6-1.65-.76-3.26-1.52-4.85-2.27-32.88-15.55-55.37-28.92-62.39-38.22-32.1-42.53-34.93-87.15,39.69-112.08,13.5-4.51,42.37-7.47,80.89-9.23l6.31-.27c39.67-1.63,88.76-2.08,141.51-1.69l6.44,0c58.28.49,120.68,2,179.54,4l5.91.2c121.78,4.18,227.26,10.48,247.94,14.62Z"/>
<path class="cls-26" d="m2934.5 2481.8c-15.11 1.72-40.92 6-46.34 21.21-5.1 14.38 11.65 28.17 5.29 38.66-8.24 13.6-42.26 0.18-49.33 13-5.46 9.88 13.05 21.24 10 41.85-2.47 16.56-15.64 17.45-16.45 31.35-1.17 20 25.65 25.68 27 48.36 1.09 18.82-17.53 25.13-13.35 39.27 4.77 16.14 31.33 16.39 33.95 33.49 1.12 7.32-3.58 8.3-2.53 15.2 3.19 20.94 49.81 31.11 68.92 32.93 13.07 1.25 18-0.16 34.65 2.44 15.85 2.48 26.88 6.39 33.67 8.3 0 0 14.25 4 43.4 1.52 47.14-4.05 174-109.15 145.45-209.39-6.16-21.62-17.58-35.11-29.59-49.31-74.6-88.15-196.59-74.33-244.74-68.88z"/>
<path class="cls-27" d="m2986.2 2799.5a190.21 190.21 0 0 1 25.26 5.79c-10.48-2.39-19.12-4.37-25.26-5.79z"/>
<path class="cls-28" d="m2976.5 2797.2c1.2 0.45 2.64 1 4.28 1.5-12.49-1.55-17.65-0.58-29.17-1.68-19.11-1.82-65.74-12-68.92-32.93-1.06-6.9 3.65-7.88 2.53-15.19-2.61-17.11-29.18-17.36-33.95-33.51-4.18-14.12 14.44-20.44 13.35-39.26-1.3-22.68-28.13-28.35-27-48.36 0.82-13.9 14-14.79 16.46-31.35 3.08-20.61-15.43-32-10-41.85 7.06-12.78 41.08 0.64 49.32-13 6.36-10.49-10.4-24.27-5.28-38.67 5.4-15.23 31.23-19.48 46.34-21.19 16.21-1.84 40.77-4.63 69.08-4.14-19.7 0.66-36.62 2.57-48.81 4-15.1 1.72-40.92 6-46.33 21.21-5.11 14.38 11.64 28.17 5.29 38.67-8.24 13.59-42.27 0.17-49.33 13-5.47 9.88 13 21.24 10 41.86-2.46 16.55-15.64 17.44-16.45 31.35-1.17 20 25.66 25.68 27 48.35 1.08 18.82-17.54 25.13-13.36 39.27 4.78 16.14 31.33 16.4 34 33.49 1.11 7.33-3.59 8.31-2.54 15.21 3.19 20.93 49.81 31.1 68.92 32.93 1.62 0.08 3.11 0.21 4.57 0.29z"/>
<path class="cls-29" d="M3050.27,2481.61a10.57,10.57,0,0,0-1.59-.15c-30.63-1-57.35,2.06-74.61,4-15.11,1.7-40.92,6-46.34,21.2-3.15,8.89-.8,19.1.19,27.95a11.71,11.71,0,0,1-8.62,12.6c-14.33,3.83-31.3,3.26-35.61,11.07-5.45,9.88,13,21.24,10,41.85-2.47,16.57-15.64,17.45-16.45,31.35-.45,7.65,4.22,12.43,7.95,18.42,7.11,11.44,10.19,25.91,10.64,30.35,1.9,18.75-14.91,28-5,38.86,6.79,7.44,10.7,8.66,19.34,20.3,5.19,7,6.08,21.13,6.65,24.6,2.84,17.24,35.74,29.52,57.25,34h0c2,.14,4.18.34,6.66.66-1.64-.54-3.07-1-4.28-1.5h0l-1.89-.49c-.6-.15-1.21-.32-1.82-.49l-.32-.08c-1-.28-2.1-.58-3.16-.89-2.81-.8-5.7-1.7-8.67-2.67-17.35-5.73-26.14-8.74-31.59-15.94,8-6.8-16-49.14-19.11-55.45-5.75-11.5,3.62-16.35.31-33.42-.34-1.75-8.72-15.71-8.46-28.24.22-10.45,8.24-18.86,4.92-22.11a18.9,18.9,0,0,1-4.29-5.66,13.78,13.78,0,0,1-1.17-8.05c1-7.36,5.14-7.39,6.92-15.9,2-9.77-3-12.71-.31-19.11,3.31-7.76,11.6-5.38,16.48-13.18,3.74-5.95,4.11-15.32,5.31-23.59a11.69,11.69,0,0,1,6.91-9,149.69,149.69,0,0,0,16-7.86c13.62-8.19,19.07-18.59,23.87-24.49,21.67-26.69,79.21-22.19,89.15-21.41,21,1.64,44.4,9.07,66.54,21.35C3105.92,2494.7,3077.58,2486,3050.27,2481.61Zm-122.78,292.84-.38-.6c-.45-.74-.88-1.5-1.28-2.27.88,1.49,1.63,2.74,2.2,3.68C2927.85,2775,2927.66,2774.73,2927.49,2774.45Z"/>
<path class="cls-27" d="m3011.5 2805.3c-10.45-2.39-19.12-4.37-25.26-5.79 3.05 0.47 5.93 1 8.63 1.56 6.55 1.36 12.08 2.88 16.63 4.23z"/>
<path class="cls-27" d="m3057.1 2809.7-1.22 0.23c-6.32 0.31-12.06 0.25-17 0 5.03 0.22 11.11 0.2 18.22-0.23z"/>
<path class="cls-30" d="m2810.8 2473.2-5.91-0.2a405.12 405.12 0 0 0-36 70.81 415.83 415.83 0 0 0-28.5 156 422.19 422.19 0 0 0 3.31 49.57c1.77 0.52 3.53 1 5.3 1.52a422.68 422.68 0 0 1-3.54-51.13 410.89 410.89 0 0 1 28.15-154.11 399 399 0 0 1 37.19-72.46z"/>
<path class="cls-30" d="M2618.87,2469a363.07,363.07,0,0,0-48.32,81.61A354.29,354.29,0,0,0,2542,2683.34c1.67.62,3.34,1.24,5,1.85a349.51,349.51,0,0,1,28.19-132.6,358,358,0,0,1,50.1-83.57Z"/>
<path class="cls-30" d="m2471 2470.9a362.6 362.6 0 0 0-31.69 58.64 354.33 354.33 0 0 0-26.5 100.89c1.59 0.75 3.2 1.51 4.85 2.27a349.15 349.15 0 0 1 26.29-101.17 356 356 0 0 1 33.33-60.9z"/>
<path class="cls-23" d="m2936.1 2794.7c-1-0.15-2.06-0.32-3.09-0.49-195.34-31.87-550.47-159.41-582.56-201.93-16.48-21.84-25.25-44.23-19.77-64.22a150.44 150.44 0 0 0 9.18 13.6c29.57 39.16 333.08 150.42 533.46 192.66 5.84 3.56 10.79 7.72 11.84 14.62 1.12 7.31-3.59 8.29-2.53 15.19 2.49 16.43 31.76 26.23 53.47 30.57z"/>
<path class="cls-22" d="m2611.3 2479q-10.77 1.22-21.54 2.39l-9.9 1.07-15.75 1.67-6.82 0.72q-10.68 1.1-21.37 2.16-7.08 0.72-14.18 1.4-86.85 8.39-174 14a93.44 93.44 0 0 1 16.27-11.08q78.9-5.29 157.62-12.9 7.09-0.69 14.18-1.4 10.68-1 21.36-2.16c2.27-0.23 5.06-0.39 7.33-0.63 5.25-0.55 9.65-0.86 14.9-1.43 3.3-0.35 7-0.87 10.28-1.1 8.72-0.61 24.23-3.2 29.14-2.7-0.53 0.66-5.84 7.49-7.52 9.99z"/>
<path class="cls-27" d="M3221.58,2648c.23,76.11-62.09,127.59-98,144.95-30.55,14.77-67.87,17.34-75.51,17.57-8.82.27-23.21-1.2-28.16-2.76-.4-.12-3-.95-6.51-1.92,0,0-2.85-.8-5.59-1.43-7.1-1.62-10.66-1.55-15.76-2.65a110.37,110.37,0,0,1-15.57-4.56c-5-1.25-10.3-2.77-15.85-4.61-17.36-5.73-26.15-8.74-31.6-15.94-5.66-7.5-8.66-18.87-9.16-21.25-1.38-6.53-.33-7.27-1.85-11.25-4.06-10.59-9.74-12.77-13.53-20.33-5.74-11.51,7.85-18.26,4.54-35.33-2.58-13.29-14.44-15.51-13.11-26.35,1.08-8.65,8.93-9.63,9.58-19.29.57-8.59-5.48-10.51-4.27-19.13,1-7.36,5.14-7.39,6.92-15.9,2-9.77-3-12.71-.31-19.11,3.31-7.76,11.6-5.37,16.48-13.18,5.59-8.92-2.6-16.18,2.15-25.52,4.25-8.33,13.12-7.17,26.11-15,13.62-8.19,19.07-18.59,23.87-24.49,21.67-26.69,79.21-22.19,89.15-21.41C3131.71,2494.31,3221.29,2556.67,3221.58,2648Z"/>
<path class="cls-31" d="m3077.4 2639c1.7 1 3.29-1.64 8.69-3.25 6.48-1.94 9.07 0.37 12.5-2.18 2.85-2.13 4.52-6.32 3.26-8.15-0.82-1.18-2.55-0.91-10.87 0-10.17 1.11-11.59 1.13-13 2.72-3.04 3.27-2.84 9.57-0.58 10.86z"/>
<path class="cls-31" d="m3121.4 2674.3c-3.48 2.43-1.32 9.78-3.26 10.32-1 0.28-2.59-1.47-3.38-3.11-2.16-4.49 1.51-8.18-0.43-11s-6.4-0.87-7.6-3.26 2-7.85 5.43-8.15c2.48-0.22 2.93 2.42 7.06 3.8 4.42 1.47 6.52-0.69 8.69 1.09 2.5 2 2.73 7.33 0.55 9.23-2.01 1.77-4.67-0.59-7.06 1.08z"/>
<path class="cls-31" d="m3074.2 2605.8c2.93 2 8.42-1.49 11.83-3.66 4.41-2.83 3.64-3.52 6.76-5.35 6.78-4 10.74-0.89 16.61-5.07 1.12-0.8 5.24-3.73 4.79-7.32a5.08 5.08 0 0 0-3.38-4.23c-3.05-0.72-4.32 3.72-9.86 5.63-2.93 1-2.88-0.12-11 0.57a38.57 38.57 0 0 0-9.57 1.69c-3.16 1.06-7.58 3.13-7.33 4.5s5.67 1.05 5.92 2.54-5.71 2.52-6.48 6.19a4.65 4.65 0 0 0 1.71 4.51z"/>
<path class="cls-31" d="m3189.7 2656.4c-0.3 1.67 1.43 2.21 3.32 5.81s1.32 5.2 2.9 6 4.38 0.07 5.6-1.66c1.93-2.73-0.62-6.55-0.83-6.85-0.91-1.33-1.43-1.1-3.11-3.11s-1.69-3-2.7-3.32c-1.8-0.62-4.86 1.09-5.18 3.13z"/>
<path class="cls-31" d="m3134.7 2709.3c2.29 1.74 7.87-2.38 9.13-3.32a23 23 0 0 0 8.09-10.37c0.46-1.19 3.42-8.88 0.42-11.42-1.11-0.92-3-1.14-3.74-0.41s0.25 2.33 0 5.6c-0.11 1.49-0.28 3.66-1.66 4.36s-2.94-0.31-3.11-0.41c-2.62-1.59-2.7-5.45-3.12-5.4s1.51 5.79-1 10.17c-1.92 3.31-5 3.42-5.81 6.85-0.33 1.28-0.39 3.46 0.8 4.35z"/>
<path class="cls-31" d="m3148 2595.4c-2.15 3.54-2.61 4.18-2.31 4.83 0.56 1.23 3.23 1.11 4.62 1 4.52-0.21 10.16-2.2 10.08-4.2-0.05-1.27-2.41-2.64-4.41-2.52-2.18 0.12-3.24 1.95-4.2 1.47-1.27-0.64-0.29-4.19-1.05-4.42-0.44-0.07-1 0.95-2.73 3.84z"/>
<path class="cls-31" d="m2948.5 2662.1c1.95 0 1.43 6.41 6.76 13.53 5.6 7.48 12.47 8.84 12 10.16-0.69 2-17.46 2.59-22.15-7.08-3.41-7.04 0.99-16.67 3.39-16.61z"/>
<path class="cls-31" d="m3012.4 2730.7c0.34 3 8.11 4.16 11.08 4.61s13.28 2 15.38-2.15c0.64-1.28 0.36-2.75 0-4.62-0.19-1-1-5.46-3.08-5.84-2.21-0.43-2.83 4.55-6.77 5.84-4.54 1.49-7.77-3.82-12.61-2.15-2.13 0.73-4.19 2.64-4 4.31z"/>
<path class="cls-31" d="m3078 2718.4c1.87 1.45 4.66 0.78 10.16-0.62 7.05-1.79 8.23-3.41 8.61-4 1.07-1.66 1.75-4.41 0.62-5.53-1.43-1.41-4.29 1.1-11.08 2.46-6.17 1.23-9.13 0.22-10.15 2.15-0.88 1.62 0.17 4.26 1.84 5.54z"/>
<path class="cls-31" d="m3017.1 2643.9c1.14 2.44 4.17 2.88 5.53 3.08 3.82 0.55 6.87-1.12 9.23-2.46 3.35-1.9 7.48-4.24 7.39-7.69-0.07-2.79-2.88-5.75-5.23-5.54-1.74 0.15-2.89 2-4.31 4.31-2.61 4.22-2.1 6.46-3.69 7.07-2.73 1-6.2-4.76-8.31-3.69-1.21 0.61-1.43 3.19-0.61 4.92z"/>
<path class="cls-31" d="m3035.2 2707.3c3.26 2.54 8.58-0.26 9.23-0.61s5.67-3.19 6.15-8.62c0.34-3.87-1.83-7.53-2.77-7.38s-0.21 5.07-2.15 5.85c-2.19 0.88-6-4.28-6.77-3.7s2.86 4.62 1.54 7.08-6.23 1.13-7.08 3.38c-0.5 1.34 0.72 3.12 1.85 4z"/>
<path class="cls-31" d="m3161.7 2566.7c0.68 1.75 2.84 7.35 7.69 9.23 5.12 2 11.78-0.75 12-3.08 0.09-0.93-2.3-2.68-7.08-6.15-3.5-2.54-4-2.74-5.23-4-2.64-2.79-2.2-4.06-4.3-6.15-3.23-3.2-8.23-4.13-8.93-3.08-0.55 0.84 2 2.43 4 7.08 1.29 2.93 0.84 3.53 1.85 6.15z"/>
<path class="cls-31" d="m3043.4 2600.4c2.18 2.89 6.51 3.79 9.92 2.63 0.42-0.15 5.63-2 5.55-5.84-0.07-3.15-3.64-5.88-5.26-5.25-1.9 0.74-0.36 5.83-2.62 7-2.66 1.38-7.4-4.31-8.76-3.21-0.77 0.63-0.03 3.07 1.17 4.67z"/>
<path class="cls-31" d="m3153.4 2731.2c2.18 2.89 6.51 3.78 9.92 2.62 0.42-0.14 5.62-2 5.54-5.83-0.06-3.15-3.63-5.89-5.25-5.26-1.91 0.74-0.37 5.84-2.63 7-2.65 1.37-7.39-4.32-8.75-3.21-0.77 0.63-0.04 3.08 1.17 4.68z"/>
<path class="cls-31" d="m2993.3 2689.7c2.18 2.89 6.51 3.79 9.92 2.63 0.42-0.14 5.62-2 5.54-5.84-0.06-3.14-3.63-5.88-5.25-5.25-1.91 0.74-0.37 5.83-2.63 7-2.65 1.38-7.39-4.31-8.75-3.21-0.77 0.63-0.04 3.08 1.17 4.67z"/>
<path class="cls-31" d="m3056.2 2566.3c2.31 0.32 2.82-3.34 7.3-5.25 4.86-2.08 8.06 0.63 10.5-1.76 2.13-2.07 2.06-6.43 0.58-7.29-1.64-0.95-3.72 3.17-9 4.67-6.68 1.88-11.17-2.45-13.13-0.29s0.62 9.48 3.75 9.92z"/>
<path class="cls-31" d="m3116.8 2752.1c2.32 0.32 2.83-3.35 7.3-5.26 4.86-2.08 8.06 0.63 10.5-1.75 2.14-2.07 2.07-6.44 0.59-7.29-1.65-1-3.73 3.17-9 4.67-6.68 1.87-11.17-2.45-13.13-0.3s0.61 9.49 3.74 9.93z"/>
<path class="cls-31" d="m3050 2519.6a23.25 23.25 0 0 0 5.25 3.21c7.91 3.87 8.14 5.91 10.51 5.54 4.21-0.64 8.43-7.81 6.13-12-1.2-2.16-4.3-3.74-6.42-2.92-2.69 1.05-2.18 5.34-4.38 5.84-1.92 0.43-2.88-2.71-7-4.38-3.16-1.28-7.05-1.24-7.59 0s2.38 3.82 3.5 4.71z"/>
<path class="cls-31" d="m3149.6 2639.2c-3.65 5.91-3.63 14-1.46 14.88 1.25 0.52 3.33-1.29 4.38-2.91 1.67-2.59 0.65-4.61 1.17-8.47 0.82-6.18 4.53-9.28 3.79-9.92s-5.17 2.05-7.88 6.42z"/>
<path class="cls-31" d="m3183.9 2618.8c-2.3 0.73-3.09 9.24 0 10.8 1.77 0.89 4.89-0.49 5.83-2.63 1.63-3.73-3.73-8.84-5.83-8.17z"/>
<path class="cls-31" d="m3180.2 2692.3c0.62 2.75 1.38 6.06 2.63 6.13s3.28-3.36 2.62-6.42c-0.71-3.33-4.43-5.64-5.54-5-0.79 0.53-0.33 2.58 0.29 5.29z"/>
<path class="cls-31" d="m2989.7 2573.9c-0.19 4.64 1.65 7.28 0 8.75-1.47 1.3-4.64 0.77-6.42-0.88s-1.82-4.22-1.76-6.71c0-1.3 0.35-13.19 7.88-16.05 1.35-0.51 4.25-1.24 5.26 0 1.69 2.1-4.67 6.65-4.96 14.89z"/>
<path class="cls-31" d="m3002.6 2547c1.55 0.36 3.17-0.93 6.42-3.5 2.86-2.28 4.29-3.41 4.08-4.38-0.4-1.81-5.55-2.65-9.63-1.46-1.54 0.45-3.68 1.08-4.38 2.92-0.92 2.47 1.1 5.91 3.51 6.42z"/>
<path class="cls-31" d="m3069 2755.2c1.56 0.36 3.18-0.93 6.42-3.5 2.86-2.27 4.3-3.41 4.09-4.38-0.4-1.81-5.55-2.65-9.63-1.46-1.54 0.45-3.68 1.08-4.38 2.92-0.88 2.43 1.14 5.87 3.5 6.42z"/>
<path class="cls-31" d="m3008.1 2524c4.26-1.46 4.68-2.31 7.59-3.21 4.1-1.25 5.94-0.38 6.71-1.75s-0.32-4-2-5.25c-3.73-2.65-9.86 1.32-10.51 1.75-4.42 2.94-7.16 8.22-6.13 9.34 0.39 0.45 1.71 0.01 4.34-0.88z"/>
<path class="cls-31" d="m3067.4 2671.9c4.26-1.46 4.69-2.31 7.59-3.21 4.1-1.25 5.95-0.38 6.71-1.75s-0.31-4-2-5.25c-3.72-2.65-9.86 1.32-10.51 1.75-4.42 2.94-7.15 8.22-6.12 9.34 0.39 0.47 1.71 0.03 4.33-0.88z"/>
<path class="cls-31" d="m2961.1 2564.3c0.85 1.51-4.6 4-5.84 10.21-0.77 3.85 0.69 6.17-0.58 7-1.55 1-5.7-1.13-7-4.37-1.69-4.22 1.8-9.39 5.55-11.68 3.03-1.85 7.18-2.42 7.87-1.16z"/>
<path class="cls-31" d="m2975.4 2611.8c1.21 2.49 3.26 3.66 6.12 5.25 5.2 2.89 12 4.74 12.84 3.21 0.66-1.19-3.19-2.85-4.08-7.29-1-4.76 2.22-9.09 1.75-9.34-0.64-0.33-4.91 8.54-7.59 7.88-1.34-0.33-1.09-2.75-3.79-6.42-1.2-1.63-2.8-3.8-4.09-3.5-1.85 0.39-3.2 6.05-1.16 10.21z"/>
<path class="cls-31" d="m2984.8 2649.2c2.82 4.43-1 8.79 1.68 12.75 2.11 3.1 6.2 3 6.06 3.76-0.17 1-6.72 2.37-11.29-1-4.21-3.14-4.34-8.52-4.39-10.45 0-0.54-0.12-7.32 2.72-8.16 1.68-0.53 4.01 1.18 5.22 3.1z"/>
<path class="cls-31" d="m3024.7 2770.4c2.82 4.44-1 8.79 1.68 12.76 2.11 3.1 6.2 3 6.06 3.76-0.17 1-6.72 2.36-11.29-1.05-4.21-3.13-4.34-8.52-4.39-10.45 0-0.54-0.12-7.32 2.72-8.15 1.68-0.5 4.01 1.21 5.22 3.13z"/>
<path class="cls-31" d="m2956.8 2717.9c1.71-2.76 6.67-3.72 9.61-2.09 2.06 1.13 1.65 2.71 4 4 2.92 1.58 5.23 0 6.48 1.46 1.1 1.32 0.76 4.34-0.84 5.65-3.11 2.54-9.26-2.84-11.71-0.63s2 9.57-0.21 11.08c-1.21 0.84-4-0.47-5.43-2.3s-0.95-3.14-1.47-8.78c-0.58-6.2-1.34-6.93-0.43-8.39z"/>
<path class="cls-31" d="m2981.1 2739.9c1.67-1.55 6.81 1.36 9.62 3.56 1.88 1.47 5.57 4.86 4.81 6.27s-6.35-0.12-8.79-1.05c-2.12-0.81-3.85-1.5-5-3.34-1.05-1.65-1.71-4.41-0.64-5.44z"/>
<path class="cls-31" d="m2940.1 2627.6c-0.57 5.29 2.65 8.43 1.25 9.83-1.12 1.13-4.13 0-5.85-1-3.57-2.23-6.86-7.71-4.6-12.12 2.44-4.77 10-5.58 11.29-3.77 0.82 1.17-1.63 2.79-2.09 7.06z"/>
<path class="cls-31" d="m2952.2 2598.1c-3.58 2.62-2.53 11.08 0.2 12.13a3.3 3.3 0 0 0 3.77-1.88c0.38-1.23-0.88-1.84-1.26-3.77-0.67-3.38 2.39-5.72 1.47-6.9-0.64-0.81-2.81-0.58-4.18 0.42z"/>
<path class="cls-31" d="m2975.8 2765.8c-3.57 2.62-2.53 11.08 0.21 12.13a3.28 3.28 0 0 0 3.76-1.88c0.39-1.23-0.87-1.84-1.25-3.77-0.67-3.38 2.38-5.72 1.46-6.9-0.64-0.81-2.81-0.58-4.18 0.42z"/>
<path class="cls-31" d="m3101.4 2526.7c-1.65 0.7-1.37 9.52 3 11.81 2.52 1.34 4.2-0.72 11.45-1.11 5.43-0.29 8.06 0.67 8.49-0.36 0.49-1.2-2.26-4.29-5.54-4.8s-4.32 1.9-7.39 1.84c-5.58-0.08-8.33-8.08-10.01-7.38z"/>
<path class="cls-31" d="m3070.4 2771.5c-1.65 0.7-1.37 9.52 3 11.81 2.52 1.34 4.2-0.72 11.44-1.1 5.43-0.3 8.07 0.67 8.5-0.37 0.49-1.2-2.27-4.29-5.54-4.8s-4.32 1.9-7.39 1.84c-5.58-0.1-8.34-8.09-10.01-7.38z"/>
<path class="cls-19" d="m2652.6 2383.8c-7.43 27.21-19.35 54.23-35.34 80.57-0.9 1.49-1.88 3.24-2.86 4.66-25.67 2.91-52.83 5.47-78.55 8q-7.09 0.72-14.18 1.4a5456.7 5456.7 0 0 1-1030.1 1.7c-6.35-0.59-12.69-1.18-19-1.81q-45.15-4.35-90.2-9.49c-1.86-1.88-3.69-3.78-5.48-5.68-15.61-26-27.3-52.57-34.61-79.36-9-33.15 14.9-60.91 47.75-56.24a4319.8 4319.8 0 0 0 1214.9 0c32.81-4.66 56.74 23.1 47.71 56.25z"/>
<path class="cls-18" d="m1473.8 2478.4-1.24-0.12q-45.16-4.35-90.21-9.49c-1.86-1.88-3.68-3.78-5.48-5.68-15.61-26-27.29-52.57-34.61-79.36-9-33.15 14.9-60.91 47.76-56.24q10.71 1.51 21.42 3a66.63 66.63 0 0 0 1.92 15.9c10.89 45.04 31.53 89.59 60.44 131.99z"/>
<path class="cls-18" d="m2652.6 2383.8c-7.42 27.21-19.35 54.23-35.34 80.57-0.88 1.49-1.4 3.16-2.86 4.66-18.56 2.11-38.6 3.94-57.19 5.86 25.72-42.05 44.25-86 54.37-130.39a74.2 74.2 0 0 0 1.91-17.44c28.25 0.87 47.33 26.57 39.11 56.74z"/>
<path class="cls-20" d="m1390.8 2108.6c0 3.67-23.81 15.25-36.41 20.62 4.23-2.41 6.58-4.54 6.58-6.6-0.18-20.61-111.76-76.15-111.93-275.54v-0.48-5.48-0.52q0-3 0.1-5.95c10.27 177.4 141.49 254.34 141.66 273.95z"/>
<path class="cls-20" d="m2644.3 2128.4c-12.95-5.65-34.48-16.28-34.45-19.77 0.16-18.89 121.63-90.8 139.95-254.23-2.45 199.63-111.6 244.95-111.4 268.37 0.02 1.98 2.12 3.79 5.9 5.63z"/>
</svg><svg viewBox="0 0 4e3 4e3">
<defs>
<style>.cls-32{fill:#fff}.cls-32,.cls-33{stroke:#333}.cls-32,.cls-33,.cls-35{stroke-linecap:round;stroke-linejoin:round;stroke-width:5px}.cls-33,.cls-36{fill:#333}.cls-34{opacity:0.05}.cls-35{stroke:#000;opacity:0.2}.cls-37{fill:#f7cc58}.cls-38{fill:#e1e8ed}.cls-39{fill:#e89026}.cls-40{fill:#5e460c}.cls-41{fill:#2a2f33}'</style>
</defs>
<title>hat3_7</title>
<path class="cls-32" d="M2898.54,1468c-429.33,147.72-1706.79-116.49-1647.32-292.14a51.08,51.08,0,0,1,4.54-8.17c29.52-213.62,327.48-624.16,966-539.55C2772,701,2951.27,1061.8,2898.54,1468Z"/>
<path class="cls-33" d="m2898.5 1468c-962.22 820-2805.9-6.73-1642.5-302-112.42 175.41 1205.2 452.44 1642.5 302z"/>
<path class="cls-34" d="m2896.3 1466.1c-46.15 15.7-103.88 27.23-171.63 34.27q-19.14 2-39.36 3.5c50.31-404.07-90.84-803.51-699.5-882.24l-0.82-0.1c75.57-4.81 154.6-1.8 236.44 9.05 132.59 17.57 248.49 52.76 344.48 104.6 90 48.58 163.43 112.29 218.37 189.34 51.76 72.49 87.29 157.18 105.76 251.6 17.4 89.23 19.51 186.78 6.26 289.98z"/>
<path class="cls-35" d="m2898.5 1468c-536.66 457.31-1347.5 402.43-1758 213.19 389.28 107.25 951.55 105.41 1393.1-170 145.71 0.81 274.16-12.05 364.81-43.19z"/>
<path class="cls-35" d="m1280.4 1239.1c-265 63.46-380.46 148.56-387 236.06-44.54-113.29 51.54-230.19 362.61-309.19-14.77 23-4.89 47.81 24.39 73.13z"/>
<path class="cls-36" d="M1856.85,1309.34c-9.1,0-13.45-4.22-15.5-7.76-2.29-4-2.38-8.3-2.44-11.47l0-1.1-1.1,0c-5,.56-8.61,2.27-12.79,4.25-5.48,2.6-11.69,5.55-20.7,5.55-10,0-21.84-3.74-37.25-11.77-21.09-11-32.86-23-36-36.68-2.07-9.06-.25-18.2,5.56-28l.49-.81-.79-.53c-42.67-28.6-73.1-62.89-88-99.18-7.85-19.12-6.94-57.73,2.23-93.88,6.21-24.51,21.71-69,55.69-91.52l.35-.23.08-.42a31.55,31.55,0,0,1,12.79-20.1l66.35-47.19a31.71,31.71,0,0,1,41.5,4.16l43.21,46.08.39,0a485.63,485.63,0,0,1,73.67,11.2c7,1.64,14,3.49,21,5.49l.25.07,62.51-14.3a31.73,31.73,0,0,1,30.34,52.46l-.82.89,1,.64c34.41,21.27,57,46.2,67,74.11,12.12,33.6,17.8,79.93,14.83,120.91-2.06,28.53-10.48,79.58-43.63,100.88-25.85,16.61-63.74,25.4-109.56,25.4-29.59,0-62.4-3.79-94.89-10.95l-.8-.18-.33.76c-5.75,13.18-16.58,21.3-30.47,22.88A37.13,37.13,0,0,1,1856.85,1309.34Z"/>
<path class="cls-37" d="m1719.7 939.13c22.42-11 128.44-22.69 222.84-0.34 63.94 15.13 152.34 51 174.93 113.65s24 179.54-25.2 211.17c-99.24 63.78-377.95-4.85-435.58-145.13-13.82-33.63 1.71-149.33 63.01-179.35z"/>
<ellipse class="cls-38" transform="translate(624.23 2801.3) rotate(-80.9)" cx="1954.9" cy="1034.6" rx="72.85" ry="60.32"/>
<path class="cls-39" d="m1757.4 1137.8c19.91-4.65 54.27 31 47.54 63.64 33.8-6.52 179.82-36 185.6-5.26s-37.76 41-107.61 44.21c6.48 10.1 10.07 56-22.84 59.76-23.4 2.65-1.28-22.42-23.08-20.08s-22.91 21.35-65.76-1c-58.58-30.54-19.25-58.22-16.22-67.91s6.65-18.26 0.24-27.41-20.17-40.74 2.13-45.95z"/>
<path class="cls-40" d="m1933.3 998.28a22.71 22.71 0 0 1-5-44.85l102.1-23.37a22.71 22.71 0 1 1 10.13 44.27l-102.1 23.37a22.76 22.76 0 0 1-5.13 0.58z"/>
<ellipse class="cls-38" transform="translate(541.74 2624.4) rotate(-80.9)" cx="1809.9" cy="994.52" rx="71.56" ry="59.25"/>
<circle class="cls-41" cx="1924.1" cy="1057.1" r="21.29"/>
<circle class="cls-41" cx="1779.7" cy="1015.4" r="20.91"/>
<path class="cls-40" d="m1851.6 967.69a22.66 22.66 0 0 1-16.57-7.17l-33.86-36.12-50.19 35.69a22.71 22.71 0 0 1-26.32-37l66.32-47.19a22.72 22.72 0 0 1 29.73 3l47.42 50.59a22.71 22.71 0 0 1-16.56 38.23z"/>
<path class="cls-40" d="m2078.3 1200.7a23.33 23.33 0 0 1-6.2-0.85l-276-77a23.06 23.06 0 0 1 12.39-44.42l276 77a23.06 23.06 0 0 1-6.19 45.27z"/>
</svg><svg viewBox="0 0 4e3 4e3">
<defs>
<style>.cls-43{fill:#333}.cls-44{fill:#fbdd11}.cls-45{fill:#edcd14}.cls-46{fill:#f2d214}.cls-47{fill:#f7c394;stroke:#333;stroke-miterlimit:10;stroke-width:5px}.cls-48{opacity:0.08}'</style>
</defs>
<title>hand_neck2_1</title>
<path class="cls-43" d="M2472.37,3363.64c-75.37,0-132.51-25.24-169.85-75-35.64-47.54-43.37-105.49-44.81-135.79a247.43,247.43,0,0,1,1.34-38.1c.18-1.62.38-3.29.59-5a258.73,258.73,0,0,1,9.28-43c.5-1.68,1.08-3.49,1.86-5.84.62-1.82,1.44-4.18,2.32-6.55.57-1.54,1.16-3.13,1.8-4.72,21.74-55.32,72.93-122.52,193.24-128.21l.5,0,1.05,0a19.17,19.17,0,0,1,9.86,35.49,211.63,211.63,0,0,0-90.75,115c-.55,1.69-1,3.16-1.42,4.52-.56,1.86-1.11,3.82-1.8,6.35-.4,1.52-.93,3.56-1.4,5.62a211.75,211.75,0,0,0-5.54,41.72c-.07,1.95-.1,3.53-.11,5,0,4,0,8.08.23,12.05,1.55,32.75,15.84,73.44,38.22,108.85,23.47,37.14,52.3,62.85,79.08,70.52,8.16,2.35,13,9.87,11.93,18.72-1,8.56-7.61,17.5-18.34,18h-.32l-.28,0c-5.6.27-11.2.4-16.64.4Z"/>
<path class="cls-44" d="M2489.39,3358.22a5.3,5.3,0,0,0-.57,0c-180.37,8.53-222.2-123.16-226.11-205.68a239.25,239.25,0,0,1,1.31-37.31c.17-1.6.37-3.23.58-4.88a255.46,255.46,0,0,1,9.09-42.13c.58-1.91,1.2-3.82,1.83-5.74.73-2.12,1.47-4.26,2.26-6.39.57-1.53,1.14-3.06,1.76-4.58,23.79-60.54,77.24-119.81,188.83-125.1l.6,0c14.52-.66,20.36,18.6,8,26.21A216.88,216.88,0,0,0,2384,3070.32c-.5,1.54-1,3.09-1.45,4.64-.65,2.15-1.25,4.3-1.83,6.47-.51,1.93-1,3.85-1.45,5.8a215.45,215.45,0,0,0-5.67,42.68c0,1.69-.1,3.4-.11,5.1q0,6.12.24,12.31c3.26,68.86,60.39,166.6,120.91,183.95C2508.75,3335.32,2504,3357.49,2489.39,3358.22Z"/>
<path class="cls-45" d="m2489.4 3358.2a5.3 5.3 0 0 0-0.57 0c-180.37 8.53-222.2-123.16-226.11-205.68-1.7-35.68 5.37-93.88 38.57-142.35-18.9 41-23.16 84.06-21.81 112.69 3.79 79.75 37.88 211.7 203.35 212.34 5-0.35 12.35-0.54 16.21-1.75 7.46 4.95 4.97 24.02-9.64 24.75z"/>
<path class="cls-46" d="m2476.9 2952.6q-7.26 4.45-14.15 9.45c7.39-9.45-0.93-23.44-16.54-24.51-21.55-1.49-47.34-5.42-103.19 29.19 40.47-31.06 93.1-38.79 125.33-40.32h0.59c14.53-0.69 20.36 18.56 7.96 26.19z"/>
<path class="cls-47" d="M2489.16,3136c0-.44,0-.89-.07-1.32,0-.62-.06-1.23-.13-1.84-.07-.93-.15-1.84-.24-2.76l-.18-1.75c-.09-.71-.17-1.42-.27-2.14-.17-1.28-.37-2.55-.57-3.82s-.46-2.5-.7-3.74a.27.27,0,0,1,0-.12c-.24-1.21-.51-2.42-.82-3.62-.14-.52-.26-1.05-.39-1.57l-.57-2.09c-.13-.47-.27-.94-.41-1.41-.07-.22-.13-.42-.19-.63-.16-.52-.31-1-.49-1.54-.21-.67-.43-1.33-.66-2-.13-.4-.28-.79-.41-1.2-.46-1.28-1-2.54-1.46-3.78-.23-.58-.47-1.14-.71-1.71s-.48-1.11-.74-1.68-.5-1.1-.77-1.65-.52-1.11-.79-1.66q-1.23-2.44-2.58-4.82l-.61-1.05c-.71-1.22-1.47-2.42-2.23-3.6a93,93,0,0,0-25.17-25.77,73.86,73.86,0,0,0-111.43,85.87,73.87,73.87,0,0,0,17.27,104.81h0q1.14.81,2.31,1.53c.78.5,1.57,1,2.37,1.46l1.12.64c1.52.85,3.06,1.66,4.65,2.4.55.27,1.1.51,1.66.75,1.11.5,2.26,1,3.4,1.41.54.22,1.09.42,1.64.61l.11,0c.39.15.79.28,1.18.42l2.13.67c.67.21,1.33.4,2,.58l.85.23,1.51.37.34.08,1,.23,1.74.35,1.17.22,1.57.27.82.12c.65.09,1.31.19,2,.25l.26,0c.62.08,1.22.13,1.84.19s1.28.11,1.93.13l1.57.08q.58,0,1.17,0h.47c.42,0,.85,0,1.27,0a73.74,73.74,0,0,0,26.94-5.11,79.51,79.51,0,0,0,9.37-4.4s0,0,0,0a81.2,81.2,0,0,0,8.58-5.42h0q1.63-1.17,3.21-2.43h0c1-.83,2.07-1.68,3.08-2.57h0c1-.86,2-1.76,3-2.69,0,0,0,0,0,0a99.62,99.62,0,0,0,9.48-10.32q1.86-2.34,3.64-4.8c.78-1.08,1.54-2.18,2.27-3.28q2.76-4.18,5.21-8.56,1-1.76,1.89-3.51c.6-1.19,1.2-2.39,1.78-3.58.88-1.79,1.7-3.6,2.48-5.41.25-.61.51-1.21.76-1.83.51-1.21,1-2.42,1.47-3.65s.93-2.45,1.36-3.67c.21-.61.43-1.23.65-1.83,1-3.07,2-6.12,2.82-9.18.51-1.83,1-3.65,1.4-5.45.15-.6.28-1.21.42-1.8.28-1.21.54-2.41.76-3.59.37-1.78.69-3.56,1-5.29.39-2.34.72-4.63,1-6.88a130.42,130.42,0,0,0,.88-17.29C2489.28,3138.62,2489.24,3137.27,2489.16,3136Z"/>
<path class="cls-48" d="M2489.3,3140a133.93,133.93,0,0,1-.89,17.29q-.39,3.38-1,6.88c-.29,1.73-.62,3.51-1,5.29-.24,1.18-.49,2.38-.76,3.59-.14.59-.27,1.2-.42,1.8q-.65,2.7-1.4,5.45c-.85,3.06-1.79,6.11-2.82,9.18-.22.6-.44,1.22-.65,1.83-.44,1.22-.89,2.45-1.36,3.67s-1,2.44-1.47,3.65c-.25.62-.51,1.22-.76,1.83-.8,1.81-1.62,3.62-2.48,5.41-.58,1.19-1.18,2.39-1.78,3.58s-1.25,2.34-1.89,3.51q-2.45,4.38-5.21,8.56c-.74,1.1-1.51,2.2-2.27,3.28q-1.78,2.46-3.64,4.8a105.2,105.2,0,0,1-9.48,10.32s0,0,0,0c-1,.92-2,1.81-3,2.69h0c-1,.88-2,1.73-3.08,2.57h0q-1.57,1.23-3.21,2.43h0a88.75,88.75,0,0,1-8.58,5.42s0,0,0,0a80.46,80.46,0,0,1-9.39,4.38,73.39,73.39,0,0,1-26.94,5.12c-.41,0-.83,0-1.25,0h-.47q-.59,0-1.17,0l-1.57-.08-1.93-.13c-.62-.06-1.22-.11-1.84-.19l-.26,0c-.64-.06-1.3-.16-2-.25l-.82-.12-1.57-.27-1.17-.22-1.74-.35-1-.23-.34-.08-1.51-.37-.85-.23c-.67-.18-1.33-.37-2-.58l-2.13-.67c-.39-.14-.79-.27-1.18-.42l-.11,0c-.55-.19-1.1-.39-1.64-.61-1.14-.44-2.29-.91-3.4-1.41-.56-.24-1.11-.48-1.66-.75-1.59-.74-3.13-1.55-4.65-2.4l-1.12-.64c-.8-.48-1.59-1-2.37-1.46s-1.55-1-2.31-1.53c.51,0,1,0,1.53,0a74,74,0,0,0,26.94-5.12c41.78-16.39,61.46-64.18,65.63-100.13,3.21-27.67-.79-73-13.8-93h0a73.47,73.47,0,0,1,13.84,7.53,93,93,0,0,1,25.17,25.77c.76,1.18,1.52,2.38,2.23,3.6l.61,1.05q1.35,2.37,2.58,4.82c.27.55.54,1.1.79,1.66s.53,1.1.77,1.65.5,1.12.74,1.68.48,1.13.71,1.71c.51,1.24,1,2.5,1.46,3.78.13.41.28.8.41,1.2.23.66.45,1.32.66,2,.18.51.33,1,.49,1.54.06.21.12.41.19.63.14.47.28.94.41,1.41l.57,2.09c.13.52.25,1.05.39,1.57.29,1.2.56,2.41.82,3.62a.27.27,0,0,0,0,.12c.24,1.24.48,2.49.7,3.74s.4,2.54.57,3.82c.1.72.18,1.43.27,2.14l.18,1.75c.09.92.17,1.83.24,2.76.07.61.11,1.22.13,1.84,0,.43,0,.88.07,1.32C2489.23,3137.27,2489.27,3138.62,2489.3,3140Z"/>
<path class="cls-43" d="M1524.57,3364.64c75.38,0,132.52-25.24,169.86-75,35.64-47.54,43.37-105.49,44.81-135.79a248.7,248.7,0,0,0-1.34-38.1c-.18-1.62-.38-3.29-.6-5a259.73,259.73,0,0,0-9.27-43c-.5-1.68-1.08-3.49-1.86-5.84-.63-1.82-1.44-4.18-2.32-6.55-.57-1.54-1.16-3.13-1.81-4.72-21.73-55.32-72.92-122.52-193.23-128.21l-.5,0-1,0a19.17,19.17,0,0,0-9.86,35.49,211.63,211.63,0,0,1,90.75,115c.55,1.69,1,3.16,1.41,4.52.56,1.86,1.12,3.82,1.8,6.35.41,1.52.94,3.56,1.41,5.62a211,211,0,0,1,5.53,41.72c.07,1.95.11,3.53.12,5,0,4-.05,8.08-.24,12.05-1.55,32.75-15.83,73.44-38.21,108.85-23.48,37.14-52.3,62.85-79.08,70.52-8.16,2.35-13,9.87-11.93,18.72,1,8.56,7.6,17.5,18.34,18h.32l.27,0c5.61.27,11.21.4,16.65.4Z"/>
<path class="cls-44" d="m1507.6 3359.2a5.35 5.35 0 0 1 0.58 0c180.37 8.53 222.2-123.16 226.11-205.68a239.25 239.25 0 0 0-1.31-37.31c-0.18-1.6-0.37-3.23-0.59-4.88a253.42 253.42 0 0 0-9.09-42.13c-0.57-1.91-1.19-3.82-1.83-5.74-0.72-2.12-1.47-4.26-2.26-6.39-0.57-1.53-1.14-3.06-1.75-4.58-23.79-60.54-77.25-119.81-188.84-125.1h-0.59c-14.53-0.66-20.36 18.6-8 26.21a216.79 216.79 0 0 1 92.89 117.69q0.76 2.31 1.46 4.64c0.65 2.15 1.24 4.3 1.83 6.47 0.51 1.93 1 3.85 1.45 5.8a215.45 215.45 0 0 1 5.66 42.68c0.06 1.69 0.11 3.4 0.12 5.1q0 6.12-0.24 12.31c-3.26 68.86-60.39 166.6-120.91 183.95-14.05 4.06-9.31 26.23 5.31 26.96z"/>
<path class="cls-45" d="m1507.6 3359.2a5.35 5.35 0 0 1 0.58 0c180.37 8.53 222.2-123.16 226.11-205.68 1.69-35.68-5.37-93.88-38.57-142.35 18.89 41 23.16 84.06 21.8 112.69-3.78 79.75-37.88 211.7-203.35 212.34-5-0.35-12.34-0.54-16.2-1.75-7.46 4.95-4.99 24.02 9.63 24.75z"/>
<path class="cls-46" d="m1520 2953.6q7.27 4.45 14.16 9.45c-7.39-9.45 0.93-23.44 16.54-24.51 21.55-1.49 47.33-5.42 103.19 29.19-40.47-31.06-93.1-38.79-125.33-40.32h-0.59c-14.52-0.69-20.35 18.56-7.97 26.19z"/>
<path class="cls-47" d="M1507.65,3141a130.42,130.42,0,0,0,.88,17.29q.38,3.38,1,6.88c.29,1.73.61,3.51,1,5.29.23,1.18.49,2.38.77,3.59.13.59.27,1.2.42,1.8.43,1.8.88,3.62,1.4,5.45.83,3.06,1.77,6.11,2.82,9.18.22.6.43,1.22.65,1.83.43,1.22.89,2.45,1.36,3.67s.95,2.44,1.46,3.65l.77,1.83c.78,1.81,1.6,3.62,2.48,5.41.57,1.19,1.18,2.39,1.77,3.58s1.24,2.34,1.9,3.51q2.45,4.38,5.21,8.56c.72,1.1,1.49,2.2,2.27,3.28q1.79,2.46,3.63,4.8a99.71,99.71,0,0,0,9.49,10.32s0,0,0,0c1,.93,2,1.83,3,2.69h0c1,.89,2,1.74,3.08,2.57h0c1,.84,2.12,1.65,3.21,2.43h0a82.38,82.38,0,0,0,8.59,5.42s0,0,0,0a80.42,80.42,0,0,0,9.38,4.4,73.74,73.74,0,0,0,26.94,5.11c.42,0,.85,0,1.26,0h.48q.59,0,1.17,0l1.57-.08c.65,0,1.28-.08,1.92-.13s1.23-.11,1.85-.19l.25,0c.65-.06,1.31-.16,2-.25l.82-.12c.53-.08,1.05-.18,1.58-.27l1.17-.22,1.74-.35,1-.23.34-.08,1.5-.37c.3-.07.58-.15.85-.23.68-.18,1.33-.37,2-.58l2.12-.67c.39-.14.8-.27,1.19-.42l.11,0c.55-.19,1.1-.39,1.64-.61,1.14-.44,2.28-.91,3.4-1.41.55-.24,1.1-.48,1.66-.75,1.58-.74,3.13-1.55,4.65-2.4l1.12-.64c.79-.48,1.59-1,2.37-1.46s1.54-1,2.31-1.53h0a73.88,73.88,0,0,0,17.28-104.81A73.85,73.85,0,0,0,1549,3059.69a93,93,0,0,0-25.16,25.77c-.77,1.18-1.52,2.38-2.23,3.6l-.61,1.05q-1.35,2.37-2.58,4.82c-.27.55-.54,1.1-.8,1.66s-.52,1.1-.76,1.65-.5,1.12-.74,1.68-.49,1.13-.72,1.71c-.51,1.24-1,2.5-1.45,3.78-.13.41-.28.8-.42,1.2-.23.66-.44,1.32-.66,2-.17.51-.32,1-.48,1.54-.07.21-.12.41-.19.63-.15.47-.28.94-.42,1.41-.18.7-.37,1.39-.56,2.09-.14.52-.26,1.05-.39,1.57-.31,1.2-.58,2.41-.82,3.62a.53.53,0,0,1,0,.12c-.24,1.24-.48,2.49-.7,3.74s-.4,2.54-.58,3.82c-.09.72-.17,1.43-.27,2.14s-.12,1.16-.17,1.75c-.1.92-.18,1.83-.24,2.76-.07.61-.11,1.22-.14,1.84,0,.43,0,.88-.06,1.32C1507.7,3138.27,1507.66,3139.62,1507.65,3141Z"/>
<path class="cls-48" d="M1507.65,3141a132.17,132.17,0,0,0,.89,17.29c.25,2.25.58,4.54,1,6.88.3,1.73.62,3.51,1,5.29.25,1.18.5,2.38.77,3.59.13.59.27,1.2.42,1.8q.64,2.7,1.4,5.45c.84,3.06,1.79,6.11,2.82,9.18.22.6.43,1.22.65,1.83.44,1.22.89,2.45,1.36,3.67s.95,2.44,1.46,3.65l.77,1.83c.79,1.81,1.62,3.62,2.48,5.41.57,1.19,1.18,2.39,1.77,3.58s1.25,2.34,1.9,3.51q2.45,4.38,5.21,8.56c.74,1.1,1.5,2.2,2.27,3.28q1.79,2.46,3.63,4.8a106.56,106.56,0,0,0,9.49,10.32s0,0,0,0c1,.92,2,1.81,3,2.69h0c1,.88,2,1.73,3.08,2.57h0c1,.82,2.12,1.63,3.21,2.43h0a88.9,88.9,0,0,0,8.59,5.42s0,0,0,0a81.23,81.23,0,0,0,9.39,4.38,73.47,73.47,0,0,0,26.94,5.12c.42,0,.84,0,1.25,0h.48q.59,0,1.17,0l1.57-.08,1.92-.13c.62-.06,1.23-.11,1.85-.19l.25,0c.65-.06,1.31-.16,2-.25l.82-.12c.53-.08,1.05-.18,1.58-.27l1.17-.22,1.74-.35,1-.23.34-.08,1.5-.37c.3-.07.58-.15.85-.23.68-.18,1.33-.37,2-.58l2.12-.67c.39-.14.8-.27,1.19-.42l.11,0c.55-.19,1.1-.39,1.64-.61,1.14-.44,2.28-.91,3.4-1.41.55-.24,1.1-.48,1.66-.75,1.58-.74,3.13-1.55,4.65-2.4l1.12-.64c.79-.48,1.59-1,2.37-1.46s1.54-1,2.31-1.53c-.51,0-1,0-1.53,0a73.92,73.92,0,0,1-26.94-5.12c-41.78-16.39-61.47-64.18-65.64-100.13-3.2-27.67.8-73,13.81-93h0a73.85,73.85,0,0,0-13.85,7.53,93,93,0,0,0-25.16,25.77c-.77,1.18-1.52,2.38-2.23,3.6l-.61,1.05q-1.35,2.37-2.58,4.82c-.27.55-.54,1.1-.8,1.66s-.52,1.1-.76,1.65-.5,1.12-.74,1.68-.49,1.13-.72,1.71c-.51,1.24-1,2.5-1.45,3.78-.13.41-.28.8-.42,1.2-.23.66-.44,1.32-.66,2-.17.51-.32,1-.48,1.54-.07.21-.12.41-.19.63-.15.47-.28.94-.42,1.41-.18.7-.37,1.39-.56,2.09-.14.52-.26,1.05-.39,1.57-.3,1.2-.57,2.41-.82,3.62a.53.53,0,0,1,0,.12c-.24,1.24-.48,2.49-.7,3.74s-.4,2.54-.58,3.82c-.09.72-.17,1.43-.27,2.14s-.12,1.16-.17,1.75c-.1.92-.18,1.83-.24,2.76-.07.61-.11,1.22-.14,1.84,0,.43,0,.88-.06,1.32C1507.72,3138.27,1507.68,3139.62,1507.65,3141Z"/>
</svg></svg>
